- 
http://www.Speed.Cd
 
http://www.Speed.Cd       the fast  and The Hottest Private Tracker on the net

Please Seed back to make the speed Faster!!
 ............ NFO .............
-[URL=http://img201.imageshack.us/i/thehobbitandunexpectedj.jpg/][IMG]http://img201.imageshack.us/img201/2725/thehobbitandunexpectedj.jpg[/IMG][/URL]


MRFIXIT is proud to present:   The Hobbit An Unexpected Journey 

Source:  The Hobbit An Unexpected Journey 2012 NTSC DVDR-SCREAM

[URL=http://img204.imageshack.us/i/27867621.png/][IMG]http://img204.imageshack.us/img204/2294/27867621.png[/IMG][/URL]

Complete name                            : C:
The Hobbit An Unexpected Journey-Dvdrip-H264-MRFIXIT.avi
Format                                   : AVI
Format/Info                              : Audio Video Interleave
File size                                : 1.11 GiB
Duration                                 : 2h 49mn
Overall bit rate                         : 939 Kbps
Writing library                          : VirtualDub build 32842/release 

[URL=http://img713.imageshack.us/i/32031619.png/][IMG]http://img713.imageshack.us/img713/512/32031619.png[/IMG][/URL]

ID                                       : 0
Format                                   : AVC
Format/Info                              : Advanced Video Codec
Format profile                           : High@L3.0
Format settings, CABAC                   : Yes
Format settings, ReFrames                : 4 frames
Codec ID                                 : H264
Duration                                 : 2h 49mn
Bit rate                                 : 800 Kbps
Width                                    : 720 pixels
Height                                   : 304 pixels
Display aspect ratio                     : 2.35:1
Frame rate                               : 29.970 fps
Color space                              : YUV
Chroma subsampling                       : 4:2:0
Bit depth                                : 8 bits
Scan type                                : Progressive
Bits/(Pixel*Frame)                       : 0.122
Stream size                              : 969 MiB (85%)
Writing library                          : x264 core 125 r2200bm 999b753
Encoding settings                        : cabac=1 / ref=3 / deblock=1:0:0 / analyse=0x3:0x113 / me=hex / subme=7 / psy=1 / psy_rd=1.00:0.00 / mixed_ref=1 / me_range=16 / chroma_me=1 / trellis=1 / 8x8dct=1 / cqm=0 / deadzone=21,11 / fast_pskip=1 / chroma_qp_offset=-2 / threads=9 / lookahead_threads=1 / sliced_threads=0 / nr=0 / decimate=1 / interlaced=0 / bluray_compat=0 / constrained_intra=0 / bframes=3 / b_pyramid=2 / b_adapt=1 / b_bias=0 / direct=1 / weightb=1 / open_gop=0 / weightp=2 / keyint=250 / keyint_min=25 / scenecut=40 / intra_refresh=0 / rc_lookahead=40 / rc=2pass / mbtree=1 / bitrate=800 / ratetol=1.0 / qcomp=0.60 / qpmin=0 / qpmax=69 / qpstep=4 / cplxblur=20.0 / qblur=0.5 / ip_ratio=1.40 / aq=1:1.00


[URL=http://img684.imageshack.us/i/14258198.png/][IMG]http://img684.imageshack.us/img684/6473/14258198.png[/IMG][/URL]

ID                                       : 1
Format                                   : MPEG Audio
Format version                           : Version 1
Format profile                           : Layer 3
Mode                                     : Joint stereo
Mode extension                           : MS Stereo
Codec ID                                 : 55
Codec ID/Hint                            : MP3
Duration                                 : 2h 49mn
Bit rate mode                            : Constant
Bit rate                                 : 128 Kbps
Channel(s)                               : 2 channels
Sampling rate                            : 48.0 KHz
Compression mode                         : Lossy
Stream size                              : 155 MiB (14%)
Alignment                                : Split accross interleaves
Interleave, duration                     : 33 ms (1.00 video frame)
Interleave, preload duration             : 500 ms
Writing library                          : LAME3.99.5   

[URL=http://img36.imageshack.us/i/19805875.png/][IMG]http://img36.imageshack.us/img36/52/19805875.png[/IMG][/URL]
 
http://www.imdb.com/title/tt0903624/

[URL=http://img225.imageshack.us/i/39945039.png/][IMG]http://img225.imageshack.us/img225/9529/39945039.png[/IMG][/URL]

A younger and more reluctant Hobbit, Bilbo Baggins, sets out on an "unexpected journey" to the Lonely Mountain with a spirited group of Dwarves to reclaim their stolen mountain home from a dragon named Smaug.  

[URL=http://img405.imageshack.us/i/70975872.png/][IMG]http://img405.imageshack.us/img405/6001/70975872.png[/IMG][/URL]

Ian McKellen
Martin Freeman
Richard Armitage
Ken Stott
Graham McTavish
William Kircher
James Nesbitt
Stephen Hunter
Dean O'Gorman
Aidan Turner
John Callen
Peter Hambleton
Jed Brophy
Mark Hadlow
Adam Brown 

[URL=http://img819.imageshack.us/i/94723758.png/][IMG]http://img819.imageshack.us/img819/9863/94723758.png[/IMG][/URL]

[URL=http://img268.imageshack.us/i/46620714.jpg/][IMG]http://img268.imageshack.us/img268/4769/46620714.jpg[/IMG][/URL]
[URL=http://img803.imageshack.us/i/67621863.jpg/][IMG]http://img803.imageshack.us/img803/144/67621863.jpg[/IMG][/URL]
[URL=http://img801.imageshack.us/i/57767437.jpg/][IMG]http://img801.imageshack.us/img801/3151/57767437.jpg[/IMG][/URL]
[URL=http://img10.imageshack.us/i/72177366.jpg/][IMG]http://img10.imageshack.us/img10/7492/72177366.jpg[/IMG][/URL]
[URL=http://img42.imageshack.us/i/16927449.jpg/][IMG]http://img42.imageshack.us/img42/2333/16927449.jpg[/IMG][/URL]
[URL=http://img825.imageshack.us/i/82990408.jpg/][IMG]http://img825.imageshack.us/img825/3578/82990408.jpg[/IMG][/URL]

[URL=http://img834.imageshack.us/i/greets3.png/][IMG]http://img834.imageshack.us/img834/3478/greets3.png[/IMG][/URL]

voltage, DQ1, LEGION, PRESTiGE, 26k, RemixHD, UNiQUE, Legend-Rg, DiNGiE, Relentle$$,
Bigguy, paranoid53, HIVE-CM8, TRINITY, Rx, INSPiRAL, HOPE, tommiecook, Wayne, Seedling, Quagmire

Contact [color=red]iammrfixit@hushmail.me[/color]